<svg width="83" height="118" viewBox="0 0 83 118" fill="none" xmlns="http://www.w3.org/2000/svg">
<g clip-path="url(#clip0_362_62063)">
<path d="M21.5575 116.14L1.81859 104.74C-0.563748 103.364 -0.614668 99.9365 1.72766 98.4918L47.0612 70.5091C49.3381 69.1045 52.2005 69.0608 54.5174 70.3999L74.2563 81.8004C76.6386 83.1759 76.6895 86.6037 74.3472 88.0483L29.0136 116.031C26.7368 117.436 23.8743 117.479 21.5575 116.14Z" fill="#1C1E2D"/>
<path d="M53.7572 43.5408C45.4717 49.1956 38.7539 61.7205 38.7539 71.5163C38.7539 77.222 41.0344 80.7444 44.5734 81.5705C45.9664 81.898 57.0816 88.648 59.1366 88.6189C60.6169 88.5971 52.2005 80.0749 53.7572 79.0124C62.0426 73.3576 68.7605 60.8327 68.7605 51.0369C68.7605 49.2684 80.0611 49.1883 78.7809 48.6389C67.8148 43.9375 60.5478 38.9049 53.7572 43.5408Z" fill="#AFE310" stroke="#1C1E2D" stroke-linecap="round" stroke-linejoin="round"/>
<path d="M63.0754 32.3297L79.9081 7.19614L63.0754 0.296875L35.9785 18.7895C35.9785 28.9055 40.2085 34.4366 46.1407 36.8601C48.0793 37.6533 61.2059 44.3925 63.6246 43.9122C66.7889 43.2826 59.4418 34.8077 63.0754 32.326V32.3297Z" fill="#AFE310" stroke="#1C1E2D" stroke-linecap="round" stroke-linejoin="round"/>
<path d="M2.0625 74.8168C2.0625 84.5762 5.47416 91.0643 10.9626 93.6152C13.3668 94.7323 27.0898 102.836 30.1778 102.388C33.8731 101.854 27.0571 92.418 31.3816 89.4632L48.5745 28.1813L31.3816 21.5986C15.189 32.6535 2.0625 55.6728 2.0625 74.8168Z" fill="#AFE310" stroke="#1C1E2D" stroke-linecap="round" stroke-linejoin="round"/>
<path d="M19.2549 82.8557C19.2549 102 32.3814 108.557 48.574 97.5057V28.1855C32.3814 39.2367 19.2549 63.7153 19.2549 82.8557Z" fill="#F2F2F4" stroke="#1C1E2D" stroke-linecap="round" stroke-linejoin="round"/>
<path d="M78.1952 73.959C84.1803 63.0985 84.3848 51.7309 78.6519 48.5686C72.919 45.4063 63.4197 51.6469 57.4346 62.5073C51.4495 73.3678 51.2451 84.7354 56.978 87.8977C62.7109 91.06 72.2102 84.8194 78.1952 73.959Z" fill="#504ED6" stroke="#1C1E2D" stroke-linecap="round" stroke-linejoin="round"/>
<path d="M79.9084 39.2293V7.19653L52.8116 25.6892C52.8116 43.3813 64.9452 49.44 79.9084 39.2257V39.2293Z" fill="#6B8FFA" stroke="#1C1E2D" stroke-linecap="round" stroke-linejoin="round"/>
<path d="M35.9785 18.79L52.8113 25.6893" stroke="#1C1E2D" stroke-linecap="round" stroke-linejoin="round"/>
</g>
<defs>
<clipPath id="clip0_362_62063">
<rect width="83" height="117" fill="white" transform="translate(0 0.115234)"/>
</clipPath>
</defs>
</svg>
