<svg width="120" height="126" viewBox="0 0 120 126" fill="none" xmlns="http://www.w3.org/2000/svg">
<path d="M55.4519 89.6263L21.7959 70.3316C19.0709 68.7698 19.0709 64.8368 21.7959 63.275L55.4519 43.9802C59.21 41.8246 63.8303 41.8246 67.5884 43.9802L101.244 63.275C103.969 64.8368 103.969 68.7698 101.244 70.3316L67.5884 89.6263C63.8303 91.782 59.21 91.782 55.4519 89.6263Z" fill="#B1E50E"/>
<path d="M97.2998 79.3396L72.1523 66.7354" stroke="#494B57" stroke-miterlimit="10"/>
<path d="M107.272 73.5806L106.877 58.9143" stroke="#494B57" stroke-miterlimit="10"/>
<path d="M12.416 75.9063V57.4697" stroke="#494B57" stroke-miterlimit="10"/>
<path d="M13.4916 62.8069C12.9018 63.1485 11.9379 63.1485 11.3482 62.8069L2.07903 57.4545C1.48928 57.1128 1.48928 56.5556 2.07903 56.218L11.3482 50.8656C11.9379 50.524 12.9018 50.524 13.4916 50.8656L22.7607 56.218C23.3504 56.5597 23.3504 57.1169 22.7607 57.4545L13.4916 62.8069Z" fill="#1C1E2D"/>
<path d="M61.8079 39.6067C61.2182 39.9483 60.2542 39.9483 59.6645 39.6067L50.3954 34.2543C49.8056 33.9126 49.8056 33.3554 50.3954 33.0178L59.6645 27.6654C60.2542 27.3238 61.2182 27.3238 61.8079 27.6654L71.077 33.0178C71.6668 33.3595 71.6668 33.9167 71.077 34.2543L61.8079 39.6067Z" fill="#1C1E2D"/>
<path d="M107.828 63.6155C107.238 63.9571 106.274 63.9571 105.684 63.6155L96.415 58.2631C95.8252 57.9214 95.8252 57.3642 96.415 57.0266L105.684 51.6742C106.274 51.3326 107.238 51.3326 107.828 51.6742L117.097 57.0266C117.686 57.3683 117.686 57.9255 117.097 58.2631L107.828 63.6155Z" fill="#1C1E2D"/>
<path d="M61.5892 125.506C60.9995 125.848 60.0356 125.848 59.4458 125.506L50.1767 120.154C49.5869 119.812 49.5869 119.255 50.1767 118.917L59.4458 113.565C60.0356 113.223 60.9995 113.223 61.5892 113.565L70.8584 118.917C71.4481 119.259 71.4481 119.816 70.8584 120.154L61.5892 125.506Z" fill="#1C1E2D"/>
<path d="M60.5143 120.735L49.0977 114.146V96.8973L60.5143 103.486V120.735Z" fill="#6B8FFA"/>
<path d="M60.5143 120.735L49.0977 114.146V96.8973L60.5143 103.486V120.735Z" stroke="#1C1E2D" stroke-linecap="round" stroke-linejoin="round"/>
<path d="M71.9303 114.146L60.5137 120.735V103.486L71.9303 96.8973V114.146Z" stroke="#1C1E2D" stroke-linecap="round" stroke-linejoin="round"/>
<path d="M71.9303 114.146L60.5137 120.735V103.486L71.9303 96.8973V114.146Z" fill="#504ED6"/>
<path d="M60.5141 103.486L49.1016 96.8975L60.5141 90.3046L71.9307 96.8975L60.5141 103.486Z" fill="#F2F2F4"/>
<path d="M60.5142 103.486L49.1016 96.8975L60.5142 90.3046L71.9308 96.8975L60.5142 103.486Z" stroke="#1C1E2D" stroke-miterlimit="10"/>
<path d="M13.4916 102.956C12.9018 103.298 11.9379 103.298 11.3482 102.956L2.07903 97.6039C1.48928 97.2622 1.48928 96.705 2.07903 96.3674L11.3482 91.015C11.9379 90.6734 12.9018 90.6734 13.4916 91.015L22.7607 96.3674C23.3504 96.7091 23.3504 97.2663 22.7607 97.6039L13.4916 102.956Z" fill="#1C1E2D"/>
<path d="M12.4166 98.2013L1 91.6083V74.3594L12.4166 80.9523V98.2013Z" fill="#6B8FFA"/>
<path d="M12.4166 98.2013L1 91.6083V74.3594L12.4166 80.9523V98.2013Z" stroke="#1C1E2D" stroke-linecap="round" stroke-linejoin="round"/>
<path d="M23.8326 91.6083L12.416 98.2013V80.9523L23.8326 74.3594V91.6083Z" fill="#504ED6"/>
<path d="M23.8326 91.6083L12.416 98.2013V80.9523L23.8326 74.3594V91.6083Z" stroke="#1C1E2D" stroke-linecap="round" stroke-linejoin="round"/>
<path d="M12.4166 80.9532L1 74.3603L12.4166 67.7715L23.8332 74.3603L12.4166 80.9532Z" fill="#F2F2F4"/>
<path d="M12.4166 80.9532L1 74.3603L12.4166 67.7715L23.8332 74.3603L12.4166 80.9532Z" stroke="#1C1E2D" stroke-miterlimit="10"/>
<path d="M61.1139 35.3436L49.6973 28.7507V7.43457L61.1139 14.0275V35.3436Z" fill="#6B8FFA"/>
<path d="M61.1139 35.3436L49.6973 28.7507V7.43457L61.1139 14.0275V35.3436Z" stroke="#1C1E2D" stroke-linecap="round" stroke-linejoin="round"/>
<path d="M72.5299 28.7507L61.1133 35.3436V14.0275L72.5299 7.43457V28.7507Z" fill="#504ED6"/>
<path d="M72.5299 28.7507L61.1133 35.3436V14.0275L72.5299 7.43457V28.7507Z" stroke="#1C1E2D" stroke-linecap="round" stroke-linejoin="round"/>
<path d="M61.1137 14.0285L49.7012 7.43553L61.1137 0.84668L72.5303 7.43553L61.1137 14.0285Z" fill="#F2F2F4"/>
<path d="M61.1137 14.0285L49.7012 7.43553L61.1137 0.84668L72.5303 7.43553L61.1137 14.0285Z" stroke="#1C1E2D" stroke-miterlimit="10"/>
<path d="M12.4166 57.471L1 50.8781V37.6963L12.4166 44.2892V57.471Z" fill="#6B8FFA"/>
<path d="M12.4166 57.471L1 50.8781V37.6963L12.4166 44.2892V57.471Z" stroke="#1C1E2D" stroke-linecap="round" stroke-linejoin="round"/>
<path d="M23.8326 50.8781L12.416 57.471V44.2892L23.8326 37.6963V50.8781Z" fill="#504ED6"/>
<path d="M23.8326 50.8781L12.416 57.471V44.2892L23.8326 37.6963V50.8781Z" stroke="#1C1E2D" stroke-linecap="round" stroke-linejoin="round"/>
<path d="M12.4166 44.2882L1 37.6953L12.4166 31.1064L23.8332 37.6953L12.4166 44.2882Z" fill="#F2F2F4"/>
<path d="M12.4166 44.2882L1 37.6953L12.4166 31.1064L23.8332 37.6953L12.4166 44.2882Z" stroke="#1C1E2D" stroke-miterlimit="10"/>
<path d="M61.5892 79.2864C60.9995 79.628 60.0356 79.628 59.4458 79.2864L50.1767 73.934C49.5869 73.5923 49.5869 73.0351 50.1767 72.6975L59.4458 67.3451C60.0356 67.0035 60.9995 67.0035 61.5892 67.3451L70.8584 72.6975C71.4481 73.0392 71.4481 73.5964 70.8584 73.934L61.5892 79.2864Z" fill="#1C1E2D"/>
<path d="M60.5143 73.9503L49.0977 67.3615V54.1797L60.5143 60.7726V73.9503Z" fill="#6B8FFA"/>
<path d="M60.5143 73.9503L49.0977 67.3615V54.1797L60.5143 60.7726V73.9503Z" stroke="#1C1E2D" stroke-linecap="round" stroke-linejoin="round"/>
<path d="M71.9321 67.3615L60.5155 73.9503V60.7726L71.9321 54.1797V67.3615Z" fill="#504ED6"/>
<path d="M71.9321 67.3615L60.5155 73.9503V60.7726L71.9321 54.1797V67.3615Z" stroke="#1C1E2D" stroke-linecap="round" stroke-linejoin="round"/>
<path d="M60.5141 60.7726L49.1016 54.1797L60.5141 47.5908L71.9307 54.1797L60.5141 60.7726Z" fill="#F2F2F4"/>
<path d="M60.5141 60.7726L49.1016 54.1797L60.5141 47.5908L71.9307 54.1797L60.5141 60.7726Z" stroke="#1C1E2D" stroke-miterlimit="10"/>
<path d="M108.22 104.453C107.63 104.795 106.666 104.795 106.077 104.453L96.8075 99.1009C96.2178 98.7593 96.2178 98.2021 96.8075 97.8645L106.077 92.5121C106.666 92.1704 107.63 92.1704 108.22 92.5121L117.489 97.8645C118.079 98.2062 118.079 98.7634 117.489 99.1009L108.22 104.453Z" fill="#1C1E2D"/>
<path d="M107.272 99.9433L95.8555 93.3504V76.1055L107.272 82.6943V99.9433Z" fill="#6B8FFA"/>
<path d="M107.272 99.9433L95.8555 93.3504V76.1055L107.272 82.6943V99.9433Z" stroke="#1C1E2D" stroke-linecap="round" stroke-linejoin="round"/>
<path d="M118.69 93.3504L107.273 99.9433V82.6943L118.69 76.1055V93.3504Z" fill="#504ED6"/>
<path d="M118.69 93.3504L107.273 99.9433V82.6943L118.69 76.1055V93.3504Z" stroke="#1C1E2D" stroke-linecap="round" stroke-linejoin="round"/>
<path d="M107.272 82.6945L95.8555 76.1056L107.272 69.5127L118.689 76.1056L107.272 82.6945Z" fill="#F2F2F4"/>
<path d="M107.272 82.6945L95.8555 76.1056L107.272 69.5127L118.689 76.1056L107.272 82.6945Z" stroke="#1C1E2D" stroke-miterlimit="10"/>
<path d="M106.875 58.9132L95.4629 52.3243V39.1426L106.875 45.7355V58.9132Z" fill="#6B8FFA"/>
<path d="M106.875 58.9132L95.4629 52.3243V39.1426L106.875 45.7355V58.9132Z" stroke="#1C1E2D" stroke-linecap="round" stroke-linejoin="round"/>
<path d="M118.292 52.3243L106.875 58.9132V45.7314L118.292 39.1426V52.3243Z" fill="#504ED6"/>
<path d="M118.292 52.3243L106.875 58.9132V45.7314L118.292 39.1426V52.3243Z" stroke="#1C1E2D" stroke-linecap="round" stroke-linejoin="round"/>
<path d="M106.875 45.7324L95.4629 39.1435L106.875 32.5547L118.292 39.1435L106.875 45.7324Z" fill="#F2F2F4"/>
<path d="M106.875 45.7324L95.4629 39.1435L106.875 32.5547L118.292 39.1435L106.875 45.7324Z" stroke="#1C1E2D" stroke-miterlimit="10"/>
<path d="M95.4661 39.1436L72.5312 27.125" stroke="#494B57" stroke-miterlimit="10"/>
<path d="M71.9336 106.013L95.8568 93.3516" stroke="#494B57" stroke-miterlimit="10"/>
<path d="M20.2949 89.3125L48.8181 105.329" stroke="#494B57" stroke-miterlimit="10"/>
<path d="M49.6973 27.125L23.834 43.3978" stroke="#494B57" stroke-miterlimit="10"/>
<path d="M49.1034 64.0659L23.834 50.876" stroke="#494B57" stroke-miterlimit="10"/>
<path d="M72.1523 64.6608L101.176 48.2822" stroke="#494B57" stroke-miterlimit="10"/>
<path d="M23.834 82.4954L49.0994 67.3613" stroke="#494B57" stroke-miterlimit="10"/>
<path d="M60.6622 47.5913L61.1137 35.345" stroke="#494B57" stroke-miterlimit="10"/>
<path d="M60.5312 90.3054L60.5923 73.9512" stroke="#494B57" stroke-miterlimit="10"/>
</svg>
