<svg width="141" height="108" viewBox="0 0 141 108" fill="none" xmlns="http://www.w3.org/2000/svg">
<path d="M118.099 106.584L128.996 100.368C130.312 99.6184 130.34 97.7496 129.047 96.962L104.018 81.7064C102.761 80.9406 101.181 80.9168 99.9014 81.6468L89.0035 87.8622C87.6882 88.6121 87.6601 90.4809 88.9533 91.2684L113.982 106.524C115.239 107.29 116.819 107.314 118.099 106.584Z" fill="#1C1E2D"/>
<path d="M48.9658 104.974C75.7327 104.974 97.4316 92.4462 97.4316 76.992C97.4316 61.5378 75.7327 49.0098 48.9658 49.0098C22.1989 49.0098 0.5 61.5378 0.5 76.992C0.5 92.4462 22.1989 104.974 48.9658 104.974Z" fill="#514ED8"/>
<path d="M48.9658 104.974C75.7327 104.974 97.4316 92.4462 97.4316 76.992C97.4316 61.5378 75.7327 49.0098 48.9658 49.0098C22.1989 49.0098 0.5 61.5378 0.5 76.992C0.5 92.4462 22.1989 104.974 48.9658 104.974Z" stroke="#1C1E2D" stroke-miterlimit="10"/>
<path d="M49.0732 94.1521C75.8401 94.1521 97.539 81.624 97.539 66.1698C97.539 50.7156 75.8401 38.1875 49.0732 38.1875C22.3063 38.1875 0.607422 50.7156 0.607422 66.1698C0.607422 81.624 22.3063 94.1521 49.0732 94.1521Z" fill="#6B91FC"/>
<path d="M49.0732 94.1521C75.8401 94.1521 97.539 81.624 97.539 66.1698C97.539 50.7156 75.8401 38.1875 49.0732 38.1875C22.3063 38.1875 0.607422 50.7156 0.607422 66.1698C0.607422 81.624 22.3063 94.1521 49.0732 94.1521Z" stroke="#1C1E2D" stroke-miterlimit="10"/>
<path d="M48.9684 85.4111C68.733 85.4111 84.7553 76.1608 84.7553 64.75C84.7553 53.3392 68.733 44.0889 48.9684 44.0889C29.2038 44.0889 13.1814 53.3392 13.1814 64.75C13.1814 76.1608 29.2038 85.4111 48.9684 85.4111Z" fill="#F2F2F4"/>
<path d="M48.9684 85.4111C68.733 85.4111 84.7553 76.1608 84.7553 64.75C84.7553 53.3392 68.733 44.0889 48.9684 44.0889C29.2038 44.0889 13.1814 53.3392 13.1814 64.75C13.1814 76.1608 29.2038 85.4111 48.9684 85.4111Z" stroke="#1C1E2D" stroke-miterlimit="10"/>
<path d="M50.4913 87.3944C77.2582 87.3944 98.9572 75.7587 98.9572 61.4052C98.9572 47.0518 77.2582 35.416 50.4913 35.416C23.7244 35.416 2.02554 47.0518 2.02554 61.4052C2.02554 75.7587 23.7244 87.3944 50.4913 87.3944Z" fill="#1C1E2D"/>
<path d="M50.4913 87.3944C77.2582 87.3944 98.9572 75.7587 98.9572 61.4052C98.9572 47.0518 77.2582 35.416 50.4913 35.416C23.7244 35.416 2.02554 47.0518 2.02554 61.4052C2.02554 75.7587 23.7244 87.3944 50.4913 87.3944Z" stroke="#1C1E2D" stroke-miterlimit="10"/>
<path d="M49.6827 86.5659C76.4497 86.5659 98.1485 74.0378 98.1485 58.5837C98.1485 43.1295 76.4497 30.6013 49.6827 30.6013C22.9158 30.6013 1.21695 43.1295 1.21695 58.5837C1.21695 74.0378 22.9158 86.5659 49.6827 86.5659Z" fill="#514ED8"/>
<path d="M49.6827 86.5659C76.4497 86.5659 98.1485 74.0378 98.1485 58.5837C98.1485 43.1295 76.4497 30.6013 49.6827 30.6013C22.9158 30.6013 1.21695 43.1295 1.21695 58.5837C1.21695 74.0378 22.9158 86.5659 49.6827 86.5659Z" stroke="#1C1E2D" stroke-miterlimit="10"/>
<path d="M49.7784 75.7419C76.5454 75.7419 98.2442 63.2138 98.2442 47.7596C98.2442 32.3054 76.5454 19.7773 49.7784 19.7773C23.0115 19.7773 1.31265 32.3054 1.31265 47.7596C1.31265 63.2138 23.0115 75.7419 49.7784 75.7419Z" fill="#6B91FC"/>
<path d="M49.7784 75.7419C76.5454 75.7419 98.2442 63.2138 98.2442 47.7596C98.2442 32.3054 76.5454 19.7773 49.7784 19.7773C23.0115 19.7773 1.31265 32.3054 1.31265 47.7596C1.31265 63.2138 23.0115 75.7419 49.7784 75.7419Z" stroke="#1C1E2D" stroke-miterlimit="10"/>
<path d="M49.6816 67.0009C69.4462 67.0009 85.4685 57.7506 85.4685 46.3398C85.4685 34.929 69.4462 25.6787 49.6816 25.6787C29.9171 25.6787 13.8947 34.929 13.8947 46.3398C13.8947 57.7506 29.9171 67.0009 49.6816 67.0009Z" fill="#F2F2F4"/>
<path d="M49.6816 67.0009C69.4462 67.0009 85.4685 57.7506 85.4685 46.3398C85.4685 34.929 69.4462 25.6787 49.6816 25.6787C29.9171 25.6787 13.8947 34.929 13.8947 46.3398C13.8947 57.7506 29.9171 67.0009 49.6816 67.0009Z" stroke="#1C1E2D" stroke-miterlimit="10"/>
<path d="M52.2742 68.8758C79.0411 68.8758 100.74 57.2401 100.74 42.8867C100.74 28.5332 79.0411 16.8975 52.2742 16.8975C25.5072 16.8975 3.80838 28.5332 3.80838 42.8867C3.80838 57.2401 25.5072 68.8758 52.2742 68.8758Z" fill="#1C1E2D"/>
<path d="M49.7683 68.0474C76.5352 68.0474 98.2341 55.5193 98.2341 40.0651C98.2341 24.6109 76.5352 12.0828 49.7683 12.0828C23.0014 12.0828 1.30252 24.6109 1.30252 40.0651C1.30252 55.5193 23.0014 68.0474 49.7683 68.0474Z" fill="#514ED8"/>
<path d="M49.7683 68.0474C76.5352 68.0474 98.2341 55.5193 98.2341 40.0651C98.2341 24.6109 76.5352 12.0828 49.7683 12.0828C23.0014 12.0828 1.30252 24.6109 1.30252 40.0651C1.30252 55.5193 23.0014 68.0474 49.7683 68.0474Z" stroke="#1C1E2D" stroke-miterlimit="10"/>
<path d="M49.864 57.2243C76.6309 57.2243 98.3298 44.6962 98.3298 29.242C98.3298 13.7878 76.6309 1.25977 49.864 1.25977C23.0971 1.25977 1.39822 13.7878 1.39822 29.242C1.39822 44.6962 23.0971 57.2243 49.864 57.2243Z" fill="#6B91FC"/>
<path d="M49.864 57.2243C76.6309 57.2243 98.3298 44.6962 98.3298 29.242C98.3298 13.7878 76.6309 1.25977 49.864 1.25977C23.0971 1.25977 1.39822 13.7878 1.39822 29.242C1.39822 44.6962 23.0971 57.2243 49.864 57.2243Z" stroke="#1C1E2D" stroke-miterlimit="10"/>
<path d="M49.7672 48.4843C69.5318 48.4843 85.5542 39.234 85.5542 27.8232C85.5542 16.4124 69.5318 7.16211 49.7672 7.16211C30.0026 7.16211 13.9803 16.4124 13.9803 27.8232C13.9803 39.234 30.0026 48.4843 49.7672 48.4843Z" fill="#F2F2F4"/>
<path d="M49.7672 48.4843C69.5318 48.4843 85.5542 39.234 85.5542 27.8232C85.5542 16.4124 69.5318 7.16211 49.7672 7.16211C30.0026 7.16211 13.9803 16.4124 13.9803 27.8232C13.9803 39.234 30.0026 48.4843 49.7672 48.4843Z" stroke="#1C1E2D" stroke-miterlimit="10"/>
<path d="M126.699 62.4508C126.699 62.4509 126.699 62.4509 126.708 62.451H126.699V91.8397L117.632 97.2346L102.503 36.2319L105.121 17.6675L114.388 12.7807L139.61 58.2162L130.394 63.7113L127.485 62.0313C127.452 62.0099 127.412 61.9878 127.362 61.9715C127.299 61.9502 127.208 61.9344 127.104 61.9553C126.996 61.9769 126.909 62.0307 126.847 62.093C126.74 62.2001 126.715 62.3213 126.709 62.3515C126.704 62.3763 126.702 62.3973 126.701 62.4125C126.7 62.4204 126.7 62.4276 126.699 62.4339L126.699 62.4431L126.699 62.4473L126.699 62.4493L126.699 62.4503V62.4508Z" fill="#E0F59F" stroke="#1C1E2D"/>
<path d="M104.687 18.0068L79 34.5796C79 34.5796 79 34.592 79 34.6043L92.0779 42.1621V83.4558L117.271 98.0033H117.283V56.7343C117.283 56.7343 117.283 56.7219 117.295 56.7343L130.348 64.2673C130.348 64.2673 130.373 64.2673 130.361 64.255L104.699 18.0068C104.699 18.0068 104.699 18.0068 104.687 18.0068Z" fill="#AFE310" stroke="#1C1E2D" stroke-miterlimit="10"/>
</svg>
