<svg width="113" height="114" viewBox="0 0 113 114" fill="none" xmlns="http://www.w3.org/2000/svg">
<path d="M76.9522 79.485C76.9032 79.275 77.0279 79.208 77.1971 79.1768C77.3263 79.4538 77.2238 79.5386 76.9522 79.485Z" fill="#808080"/>
<g clip-path="url(#clip0_362_62195)">
<path d="M0.315247 98.5406C0.301302 97.9253 0.27341 97.3053 0.27341 96.69C0.254816 91.4623 0.226925 86.2298 0.236222 81.0021C0.236222 79.7104 0.589513 78.461 0.840536 77.1975C1.40766 74.3418 2.5791 71.7114 3.97832 69.2033C5.51235 66.4555 7.38572 63.9473 9.71465 61.8196C11.5648 60.1287 13.7729 58.9779 15.8647 57.644C17.25 56.7563 18.2215 57.0803 19.4674 57.8413C22.898 59.9408 22.6888 60.0301 26.1566 62.0638C26.6122 62.3316 28.2392 63.7219 28.5507 63.224C29.6942 61.3969 30.7494 59.5275 31.7396 57.6111C32.5391 56.0658 33.506 54.605 34.3707 53.0926C34.9145 52.1391 35.3655 51.1246 35.9372 50.1899C37.0017 48.4379 37.8896 46.592 38.9774 44.8494C39.5771 43.8912 40.093 42.8579 40.6416 41.8527C41.1994 40.8288 42.3151 40.5235 43.2308 40.0021C45.3087 38.8185 47.5354 38.128 49.9713 38.3676C50.7615 38.4427 51.5099 38.6776 52.1747 39.0486C55.0754 40.6785 56.549 40.9556 59.4357 42.6183C62.6433 44.4689 65.8601 46.3102 69.0676 48.1561C68.8026 48.6727 68.3145 48.4379 67.9984 48.3627C67.0733 48.1514 66.1948 48.3627 65.3255 48.5459C63.9495 48.8277 62.6572 49.3726 61.4858 50.1429C60.6351 50.7065 59.5427 50.9508 58.9848 51.9184C58.3108 53.0832 57.6507 54.2622 57.0045 55.4458C56.2468 56.8361 55.5263 58.2499 54.7267 59.6073C53.6808 61.3828 52.6907 63.1958 51.6354 64.9713C50.2967 67.2211 49.0741 69.5414 47.7957 71.8289C47.4657 72.4254 47.1635 73.0407 46.7823 73.5996C46.536 73.9613 46.3082 74.2055 45.6806 73.8768C44.3697 73.1863 43.1797 72.308 41.9153 71.5564C40.8461 70.9223 39.7769 70.2601 38.7357 69.5602C37.5317 68.7476 36.2068 68.1182 35.0494 67.2258C34.0406 66.4555 33.5153 66.4226 32.4043 67.0755C32.144 67.2305 31.8883 67.3996 31.6187 67.5405C29.1782 68.8557 26.8725 70.3728 24.8643 72.308C23.851 73.2849 22.991 74.3981 22.1728 75.5583C21.0804 77.113 20.081 78.724 19.1931 80.3915C18.1704 82.3078 17.4824 84.3886 16.9385 86.4976C16.5899 87.8597 16.2738 89.2547 16.2645 90.6591C16.2319 97.7233 16.2505 104.783 16.2598 111.847C16.2598 112.336 16.1948 112.801 15.9716 113.237C14.7491 112.768 13.7171 111.955 12.5689 111.345C11.3184 110.678 10.1191 109.912 8.9058 109.184C7.16724 108.141 5.44262 107.075 3.69011 106.065C1.61685 104.867 3.27639 105.506 1.17058 104.365C0.59881 104.055 0.30595 103.66 0.319896 102.97C0.352436 101.528 0.319896 100.091 0.30595 98.6486C0.347787 98.6111 0.347787 98.5782 0.30595 98.5406H0.315247Z" fill="#504ED6" stroke="#050505" stroke-miterlimit="10"/>
<path d="M15.9766 113.238C16.2043 112.802 16.2648 112.337 16.2648 111.848C16.2601 104.784 16.2369 97.7242 16.2694 90.66C16.2741 89.2509 16.5902 87.8559 16.9435 86.4984C17.4873 84.3895 18.1753 82.3134 19.198 80.3923C20.0859 78.7249 21.0853 77.1138 22.1778 75.5591C22.9959 74.3943 23.8559 73.2811 24.8693 72.3088C26.8775 70.3737 29.1831 68.8566 31.6236 67.5414C31.8933 67.3958 32.1489 67.2314 32.4093 67.0764C33.5156 66.4235 34.0455 66.4517 35.0543 67.2267C36.2164 68.1144 37.5366 68.7485 38.7406 69.5611C39.7819 70.261 40.8511 70.9232 41.9202 71.5573C43.1846 72.3088 44.3747 73.1872 45.6856 73.8776C46.3131 74.2064 46.5409 73.9669 46.7873 73.6005C47.1685 73.0416 47.466 72.4216 47.8007 71.8297C49.0744 69.5423 50.3016 67.222 51.6404 64.9722C52.6956 63.1967 53.6811 61.3837 54.7317 59.6082C55.5312 58.2555 56.2518 56.837 57.0095 55.4467C57.6556 54.263 58.3111 53.0888 58.9898 51.9192C59.5476 50.9517 60.3843 50.3223 61.235 49.7586C62.4065 48.9883 65.9905 47.6168 69.0725 48.157C70.732 48.8568 72.2149 49.768 73.1958 51.3885C73.9953 52.713 74.4463 54.1221 74.5904 55.6486C74.9297 59.2982 74.6926 62.9525 74.7345 66.602C74.781 70.3643 74.7159 74.1219 74.7531 77.8842C74.7624 78.9128 74.5578 79.5986 73.5212 80.1058C71.7733 80.9701 70.1742 82.1349 68.4403 83.032C65.4652 84.5727 62.704 86.4796 59.794 88.1377C58.0601 89.124 56.275 90.0212 54.569 91.0733C51.8263 92.7689 49.0837 94.4645 46.2201 95.9581C44.6954 96.7566 43.3101 97.8228 41.7854 98.6213C39.5959 99.7674 37.5366 101.144 35.3425 102.28C33.9665 102.994 32.7625 103.99 31.3959 104.727C29.6805 105.653 27.942 106.559 26.3103 107.621C23.1679 109.664 19.8442 111.392 16.6738 113.393C16.4507 113.534 16.1067 113.75 15.9766 113.238Z" fill="#AFE310" stroke="#1C1E2D" stroke-miterlimit="10"/>
<path d="M34.838 67.6397C36.0002 68.5274 37.3204 69.1615 38.5244 69.9741C39.5656 70.6739 40.6348 71.3362 41.704 71.9703C42.9684 72.7218 44.1584 73.6001 45.4693 74.2906C46.0969 74.6194 46.3247 74.3798 46.571 74.0135C46.9522 73.4545 47.2497 72.8345 47.5844 72.2427C48.8581 69.9553 50.0854 67.635 51.4241 65.3851C52.4794 63.6097 53.4649 61.7966 54.5154 60.0212C55.315 58.6684 56.0355 57.2499 56.7932 55.8596C57.4394 54.676 58.0948 53.5018 58.7735 52.3322L40.4256 41.7969C39.8771 42.802 36.7904 48.3867 35.7213 50.134C35.1495 51.0734 29.1435 61.7121 28 63.5392L34.8427 67.635L34.838 67.6397Z" fill="#1C1E2D"/>
<path d="M13.5457 33.9432V30.9183C13.7223 30.8338 13.6526 30.6647 13.6479 30.5379C13.6107 29.5186 13.8106 28.5182 14.0105 27.5365C14.4893 25.1457 15.168 22.8113 16.107 20.5521C17.39 17.4615 19.0589 14.5963 21.0066 11.9049C21.7922 10.8152 22.6383 9.76311 23.5912 8.79553C24.6604 7.70583 25.6831 6.57386 26.8685 5.60158C28.0678 4.61991 29.3415 3.75097 30.6803 2.98067C31.6193 2.44051 32.6187 2.01309 33.6368 1.69369C34.5525 1.40248 35.4916 1.14884 36.4864 1.07839C37.5137 1.00324 38.5178 1.01263 39.5312 1.17703C41.1024 1.43066 53.1515 8.3728 54.7692 9.33568C55.0295 9.49068 55.4014 9.57053 55.4943 9.95099C54.983 9.96038 54.4949 9.7819 53.9882 9.73493C51.4733 9.49538 49.1072 10.0543 46.8666 11.1816C43.8264 12.7081 41.2186 14.8124 38.885 17.2877C38.0994 18.119 37.4021 19.0209 36.7048 19.9274C35.0685 22.0504 33.6926 24.3378 32.4514 26.7145C31.703 28.1471 31.1266 29.6642 30.5408 31.1673C30.1085 32.2851 29.8203 33.4688 29.5507 34.6383C29.2067 36.1132 28.8813 37.5927 28.7744 39.1099C28.6768 40.5096 28.6396 41.9093 28.7744 43.309C28.8952 44.5114 29.0533 45.7185 29.4624 46.8599C30.1039 48.6541 31.0475 50.2558 32.5118 51.5052C32.4607 51.4958 32.4049 51.5005 32.3584 51.4817C31.6239 51.1905 31.001 50.6973 30.3177 50.3075C28.5977 49.3211 17.8642 43.168 17.0414 42.3696C15.0611 40.4532 14.136 38.0155 13.7363 35.3241C13.6665 34.8638 13.7688 34.3753 13.541 33.9385L13.5457 33.9432Z" fill="#6B8FFA" stroke="#1C1E2D" stroke-miterlimit="10"/>
<path d="M32.522 51.5105C31.0577 50.2611 30.114 48.6594 29.4725 46.8652C29.0635 45.7238 28.9054 44.5167 28.7845 43.3143C28.6451 41.9146 28.6823 40.5149 28.7845 39.1152C28.8915 37.598 29.2169 36.1138 29.5608 34.6436C29.8351 33.4694 30.1187 32.2858 30.551 31.1726C31.1367 29.6695 31.7085 28.1571 32.4616 26.7198C33.7027 24.3432 35.0787 22.0557 36.715 19.9327C37.4123 19.0262 38.1096 18.1291 38.8952 17.293C41.2288 14.8177 43.8366 12.7134 46.8768 11.1869C49.122 10.0596 51.4835 9.5007 53.9984 9.74025C54.5004 9.78722 54.9885 9.9657 55.5045 9.95631C56.5783 10.1865 57.4337 10.7877 58.2704 11.4828C59.8091 12.7557 60.8364 14.3621 61.4128 16.2503C62.1659 18.735 62.2635 21.2807 62.0543 23.8641C61.8591 26.2689 61.3478 28.5986 60.5993 30.8767C59.307 34.794 57.5685 38.4905 55.0908 41.8065C54.0728 43.164 53.0408 44.5026 51.8833 45.7426C50.0703 47.6966 48.0436 49.364 45.7983 50.8013C44.3479 51.7313 42.7953 52.309 41.2102 52.8726C40.5733 53.0981 39.8807 53.084 39.2671 53.3752H36.3803C36.3013 53.2108 36.1525 53.192 35.9898 53.1545C34.7208 52.8679 33.54 52.3748 32.5359 51.5152L32.522 51.5105Z" fill="#AFE310" stroke="#1C1E2D" stroke-miterlimit="10"/>
</g>
<path d="M111.518 51.8806L104.161 47.2349C103.93 47.0871 103.619 47.0501 103.24 47.1662L110.597 51.812C110.976 51.6958 111.286 51.7328 111.518 51.8806Z" fill="#EBA924"/>
<mask id="mask0_362_62195" style="mask-type:luminance" maskUnits="userSpaceOnUse" x="103" y="47" width="9" height="5">
<path d="M111.516 51.8806L104.159 47.2349C103.928 47.0871 103.617 47.0501 103.238 47.1662L110.595 51.812C110.974 51.6958 111.284 51.7328 111.516 51.8806Z" fill="white"/>
</mask>
<g mask="url(#mask0_362_62195)">
<path d="M111.516 51.8806L104.159 47.2349C103.928 47.0871 103.617 47.0501 103.238 47.1662L110.595 51.812C110.974 51.6958 111.284 51.7328 111.516 51.8806Z" fill="#EBA924"/>
</g>
<path d="M110.597 51.8176L103.245 47.1719L90.7891 50.9993L98.1406 55.6451L110.597 51.8176Z" fill="#504ED6" stroke="#050505" stroke-miterlimit="10"/>
<path d="M89.8634 50.9258L97.2202 55.5715C97.4622 55.7246 97.7832 55.751 98.1411 55.6454L90.7843 50.9997C90.4265 51.1106 90.1055 51.0842 89.8634 50.9258Z" fill="#EBA924"/>
<mask id="mask1_362_62195" style="mask-type:luminance" maskUnits="userSpaceOnUse" x="89" y="50" width="10" height="6">
<path d="M89.8634 50.9258L97.2202 55.5715C97.4622 55.7246 97.7832 55.751 98.1411 55.6454L90.7843 50.9997C90.4265 51.1106 90.1055 51.0842 89.8634 50.9258Z" fill="white"/>
</mask>
<g mask="url(#mask1_362_62195)">
<path d="M98.1409 55.6454L90.7841 50.9997C90.4263 51.1106 90.1053 51.0842 89.8632 50.9258L97.22 55.5715C97.4621 55.7246 97.7831 55.751 98.1409 55.6454Z" fill="#EBA924"/>
</g>
<path d="M89.5017 45.8303C88.8808 46.1629 88.244 46.8492 87.8704 47.7361L81.1767 63.6847C80.8978 64.3499 80.4347 64.9623 79.9032 65.3582L67.263 74.8978C65.8527 75.9643 65.2317 78.1868 66.1631 78.8626L74.4829 84.8915C74.8303 85.1449 74.9829 85.6517 74.8987 86.2852L72.9569 101.431C72.7832 102.793 73.662 103.332 74.704 102.778C74.9566 102.646 75.2197 102.445 75.4723 102.181L87.3073 89.9596C87.5547 89.7009 87.8178 89.5003 88.0756 89.363C88.3388 89.2257 88.5966 89.1465 88.8334 89.1465L100.274 88.9671C100.521 88.9671 100.779 88.8879 101.032 88.7506C102.074 88.1963 103.021 86.6864 102.931 85.4616L101.926 71.8834C101.884 71.3132 102.079 70.6216 102.452 69.9881L111.467 54.7311C112.472 53.0259 111.983 51.3946 110.593 51.8222L98.1373 55.6497C97.6163 55.8081 97.1795 55.6814 96.9322 55.296L91.0594 46.0414C90.7331 45.5241 90.1174 45.5082 89.4965 45.8408L89.5017 45.8303Z" fill="#F4F4F6" stroke="#1C1E2D" stroke-miterlimit="10"/>
<path d="M83.4283 41.1006C83.0863 40.8841 82.6179 40.9369 82.1443 41.1851C81.5181 41.5177 80.8866 42.204 80.513 43.0909L73.8193 59.0395C73.5403 59.7047 73.072 60.3171 72.5458 60.713L59.9056 70.2526C58.4952 71.3191 57.8743 73.5416 58.8057 74.2174L67.1255 80.2463C67.4728 80.4997 67.6254 81.0065 67.5412 81.64L65.6047 96.7862C65.5152 97.4936 65.7099 97.9793 66.0625 98.2063L73.4193 102.852C73.0667 102.625 72.8668 102.139 72.9562 101.432L74.898 86.2857C74.9822 85.6522 74.8244 85.1454 74.4823 84.892L66.1625 78.8631C65.2311 78.1926 65.852 75.9648 67.2623 74.8984L79.9026 65.3588C80.4288 64.9628 80.8919 64.3504 81.176 63.6852L87.8698 47.7366C88.2434 46.8444 88.8801 46.1634 89.5011 45.8308C89.9747 45.5774 90.4431 45.5299 90.7851 45.7463L83.4283 41.1006Z" fill="#504ED6" stroke="#050505" stroke-miterlimit="10"/>
<defs>
<clipPath id="clip0_362_62195">
<rect width="75" height="113" fill="white" transform="translate(0 0.796875)"/>
</clipPath>
</defs>
</svg>
