<svg width="220" height="40" viewBox="0 0 220 40" fill="none" xmlns="http://www.w3.org/2000/svg">
<path d="M66 22.6707C66 17.7803 69.4196 14.4258 74.4847 14.4258C76.8056 14.4258 78.8079 15.2267 80.52 16.8569L78.3275 19.189C77.3573 18.2279 75.9733 17.6861 74.5513 17.6861C71.6453 17.6861 69.6145 19.7308 69.6145 22.6707C69.6145 25.6107 71.6168 27.6554 74.5513 27.6554C76.1017 27.6554 77.519 27.0806 78.4892 26.0253L80.715 28.4234C78.941 30.1195 76.972 30.9157 74.518 30.9157C69.3577 30.9204 66 27.6601 66 22.6707Z" fill="#1B1E2D"/>
<path d="M99.6445 10.2379C99.6445 8.92815 100.615 8 101.937 8C103.259 8 104.291 8.92815 104.291 10.2379C104.291 11.5477 103.321 12.4099 101.937 12.4099C100.553 12.4099 99.6445 11.4817 99.6445 10.2379M100.13 14.775H103.744V30.5676H100.13V14.775V14.775Z" fill="#1B1E2D"/>
<path d="M122.939 21.8426V30.5681H119.324V22.064C119.324 19.2843 117.874 17.6871 115.453 17.6871C112.809 17.6871 110.968 19.6046 110.968 22.2572V30.5681H107.354V14.7755H110.578L110.611 16.8532C111.967 15.256 113.869 14.4551 116.128 14.4551C120.228 14.4551 122.939 17.3337 122.939 21.8379" fill="#1B1E2D"/>
<path d="M125.104 28.6163L126.782 26.025C128.2 27.1417 130.302 27.7824 132.399 27.7824C134.497 27.7824 135.595 27.1417 135.595 25.9921C135.595 24.8425 134.563 24.3289 132.109 24.0745C127.948 23.6929 125.589 21.9638 125.589 19.2171C125.589 16.4703 128.361 14.3926 132.494 14.3926C134.915 14.3926 137.046 15.0004 138.82 16.2159L137.241 18.7742C135.819 17.879 134.306 17.4314 132.661 17.4314C130.368 17.4314 129.141 18.0722 129.141 19.2218C129.141 20.2441 130.078 20.786 132.399 21.0451C137.112 21.5586 139.176 23.0569 139.176 26.0298C139.176 29.0027 136.432 30.9532 132.304 30.9532C129.626 30.9532 127.239 30.1852 125.108 28.621" fill="#514ED8"/>
<path d="M166.174 14.7754L160.881 30.568H157.043L155.526 26.0592L153.233 19.7318L150.946 26.0592L149.429 30.568H145.557L140.23 14.7754H144.069L145.876 20.594L147.588 26.4785L151.688 14.7754H154.75L158.817 26.5398L160.591 20.594L162.336 14.7754H166.174Z" fill="#514ED8"/>
<path d="M167.498 10.2379C167.498 8.92815 168.468 8 169.79 8C171.113 8 172.145 8.92815 172.145 10.2379C172.145 11.5477 171.174 12.4099 169.79 12.4099C168.406 12.4099 167.498 11.4817 167.498 10.2379M167.983 14.775H171.598V30.5676H167.983V14.775V14.775Z" fill="#514ED8"/>
<path d="M185.76 30.0262C184.533 30.568 183.501 30.7942 182.179 30.7942C178.888 30.7942 176.952 28.9096 176.952 25.1358V17.8142H173.951V14.7801H176.952V10.6199L180.533 10.2383V14.7754H185.113V17.8095H180.533V25.131C180.533 26.7282 181.275 27.6234 182.759 27.6234C183.406 27.6234 184.148 27.4302 184.762 27.1428L185.76 30.0215V30.0262Z" fill="#514ED8"/>
<path d="M186.602 22.6707C186.602 17.7803 190.021 14.4258 195.086 14.4258C197.407 14.4258 199.409 15.2267 201.122 16.8569L198.929 19.189C197.959 18.2279 196.575 17.6861 195.153 17.6861C192.247 17.6861 190.216 19.7308 190.216 22.6707C190.216 25.6107 192.218 27.6554 195.153 27.6554C196.703 27.6554 198.121 27.0806 199.091 26.0253L201.317 28.4234C199.543 30.1195 197.574 30.9157 195.12 30.9157C189.959 30.9157 186.602 27.6554 186.602 22.6707" fill="#514ED8"/>
<path d="M218.996 21.8423V30.5678H215.381V22.0637C215.381 19.284 213.93 17.6868 211.51 17.6868C208.865 17.6868 207.025 19.6044 207.025 22.2569V30.5678H203.41V8.19336H207.025V16.6315C208.314 15.1945 210.059 14.4595 212.19 14.4595C216.351 14.4595 219 17.3665 219 21.8423" fill="#514ED8"/>
<path d="M81.3438 22.8499C81.3438 18.2186 84.5968 14.7793 89.681 14.7793C94.7651 14.7793 97.9849 18.2186 97.9849 22.8499C97.9849 27.4813 94.7318 30.9206 89.681 30.9206C84.6301 30.9206 81.3438 27.4813 81.3438 22.8499ZM89.681 27.731C92.5869 27.731 94.4512 25.5402 94.4512 22.8499C94.4512 20.1597 92.5869 17.9689 89.681 17.9689C86.7751 17.9689 84.8822 20.1597 84.8822 22.8499C84.8822 25.5402 86.7465 27.731 89.681 27.731V27.731Z" fill="#1B1E2D"/>
<path d="M18.2006 19.6283V2.14258C8.54341 2.14258 0.714844 9.97115 0.714844 19.6283C0.714844 29.2854 8.54341 37.114 18.2006 37.114V19.6283Z" fill="#1B1E2D"/>
<path d="M20.6504 2.14258C20.6504 11.1926 27.9861 18.5212 37.0361 18.5283V2.14258H20.6504Z" fill="#6B91FC"/>
<path d="M38.5723 29.0576C38.5723 24.162 34.6036 20.1934 29.708 20.1934C24.8124 20.1934 20.8438 24.162 20.8438 29.0576C20.8438 33.9533 24.8124 37.9219 29.708 37.9219C34.6036 37.9219 38.5723 33.9533 38.5723 29.0576Z" fill="#514ED8"/>
</svg>
